# AST/ASF file generated using VICON BodyLanguage
# -----------------------------------------------
:version 1.10
:name VICON
:units
  mass 1.0
  length 0.45
  angle deg
:documentation
   .ast/.asf automatically generated from VICON data using
   VICON BodyBuilder and BodyLanguage model FoxedUp or BRILLIANT.MOD
:root
   order TX TY TZ RX RY RZ
   axis XYZ
   position 0 0 0  
   orientation 0 0 0 
:bonedata
  begin
     id 1 
     name lhipjoint
     direction 0.623415 -0.642378 0.445763 
     length 2.49859 
     axis 0 0 0  XYZ
  end
  begin
     id 2 
     name lfemur
     direction 0.34202 -0.939693 0  
     length 6.69689  
     axis 0 0 20  XYZ
    dof rx ry rz
    limits (-160.0 20.0)
           (-70.0 70.0)
           (-60.0 70.0)
  end
  begin
     id 3 
     name ltibia
     direction 0.34202 -0.939693 0   
     length 7.37574   
     axis 0 0 20   XYZ
    dof rx
    limits (-10.0 170.0)
  end
  begin
     id 4 
     name lfoot
     direction 0.084323 -0.231675 0.969132   
     length 2.09111   
     axis -90 7.62852e-016 20   XYZ
    dof rx rz
    limits (-45.0 90.0)
           (-70.0 20.0)
  end
  begin
     id 5 
     name ltoes
     direction 1.5357e-011 -4.21957e-011 1   
     length 1.04989   
     axis -90 7.62852e-016 20   XYZ
    dof rx
    limits (-90.0 20.0)
  end
  begin
     id 6 
     name rhipjoint
     direction -0.605402 -0.653903 0.45376   
     length 2.45455  
     axis 0 0 0  XYZ 
  end
  begin
     id 7 
     name rfemur
     direction -0.34202 -0.939693 0   
     length 6.64523   
     axis 0 0 -20   XYZ
    dof rx ry rz
    limits (-160.0 20.0)
           (-70.0 70.0)
           (-70.0 60.0)
  end
  begin
     id 8 
     name rtibia
     direction -0.34202 -0.939693 0   
     length 7.3339   
     axis 0 0 -20   XYZ
    dof rx
    limits (-10.0 170.0)
 end
 begin
     id 9 
     name rfoot
     direction -0.120854 -0.332043 0.93549   
     length 2.23135  
     axis -90 -7.62852e-016 -20   XYZ
    dof rx rz
    limits (-45.0 90.0)
           (-20.0 70.0)
  end
  begin
     id 10 
     name rtoes
     direction -1.53563e-011 -4.21914e-011 1   
     length 1.10614   
     axis -90 -7.62852e-016 -20   XYZ
    dof rx
    limits (-90.0 20.0)
  end
  begin
     id 11 
     name lowerback
     direction 0.0319682 0.998615 -0.0417941   
     length 2.02718   
     axis 0 0 0   XYZ
    dof rx ry rz
    limits (-20.0 45.0)
           (-30.0 30.0)
           (-30.0 30.0)
  end
  begin
     id 12 
     name upperback
     direction 7.63181e-005 0.995808 0.0914691   
     length 1.97539   
     axis 0 0 0   XYZ
    dof rx ry rz
    limits (-20.0 45.0)
           (-30.0 30.0)
           (-30.0 30.0)
  end
  begin
     id 13 
     name thorax
     direction -0.016423 0.993627 0.111514   
     length 2.00349   
     axis 0 0 0   XYZ
    dof rx ry rz
    limits (-20.0 45.0)
           (-30.0 30.0)
           (-30.0 30.0)
  end
  begin
     id 14 
     name lowerneck
     direction -0.174763 0.981668 -0.0760716   
     length 1.71436   
     axis 0 0 0   XYZ
    dof rx ry rz
    limits (-20.0 45.0)
           (-30.0 30.0)
           (-30.0 30.0)
  end
  begin
     id 15 
     name upperneck
     direction 0.345458 0.934587 -0.0848868   
     length 1.72805   
     axis 0 0 0   XYZ
    dof rx ry rz
    limits (-20.0 45.0)
           (-30.0 30.0)
           (-30.0 30.0)
  end
  begin
     id 16
     name head
     direction 0.13001 0.989848 -0.0574291  
     length 1.767  
     axis 0 0 0   XYZ
    dof rx ry rz
    limits (-20.0 45.0)
           (-30.0 30.0)
           (-30.0 30.0)
  end
  begin
     id 17 
     name lclavicle
     direction 0.952951 0.290122 0.0878234  
     length 3.54654  
     axis 0 0 0   XYZ
    dof ry rz
    limits (-20.0 10.0)
           (0.0 20.0)
  end
  begin
     id 18 
     name lhumerus
     direction 1 -4.48957e-011 -4.56525e-028   
     length 5.19807   
     axis 180 -30 -90   XYZ
    dof rx ry rz
    limits (-60.0 90.0)
           (-90.0 90.0)
           (-90.0 90.0)
  end
  begin
     id 19
     name lradius
     direction 1 -4.48979e-011 -2.0317e-027   
     length 3.0937   
     axis 180 -30 -90   XYZ
    dof rx
    limits (-10.0 170.0)
  end
  begin
     id 20
     name lwrist
     direction 1 -4.48953e-011 -3.05809e-027   
     length 1.54685   
     axis 8.48514e-016 90 90   XYZ
    dof ry
    limits (-180.0 0.0)
 end
  begin
     id 21 
     name lhand
     direction 1 -4.48952e-011 -6.11639e-027   
     length 0.672632   
     axis 3.9013e-015 90 90   XYZ
    dof rx rz
    limits (-90.0 90.0)
           (-45.0 45.0)
  end
  begin
     id 22 
     name lfingers
     direction 1 -4.48925e-011 -1.22426e-026   
     length 0.542293   
     axis 7.80276e-015 90 90   XYZ
    dof rx
    limits (0.0 90.0)
  end
  begin
     id 23
     name lthumb
     direction 0.707107 -6.3486e-011 0.707107   
     length 0.778628   
     axis -90 45 5.37419e-014   XYZ
    dof rx rz
    limits (-45.0 45.0)
           (-45.0 45.0)
  end
  begin
     id 24 
     name rclavicle
     direction -0.960732 0.273675 -0.0457849   
     length 3.52079  
     axis 0 0 0   XYZ 
    dof ry rz
    limits (-10.0 20.0)
           (-20.0 0.0)
  end
  begin
     id 25 
     name rhumerus
     direction -1 -4.48976e-011 -1.63613e-027  
     length 5.45222   
     axis 180 30 90   XYZ
    dof rx ry rz
    limits (-90.0 60.0)
           (-90.0 90.0)
           (-90.0 90.0)
  end
  begin
     id 26 
     name rradius
     direction -1 -4.48957e-011 -7.00033e-028   
     length 3.01284   
     axis 180 30 90   XYZ
    dof rx
    limits (-10.0 170.0)
  end
  begin
     id 27 
     name rwrist
     direction -1 -4.48983e-011 -3.05543e-027   
     length 1.50642   
     axis 8.48514e-016 -90 -90   XYZ
    dof ry
    limits (-180.0 0.0)
  end
  begin
     id 28
     name rhand
     direction -1 -4.48984e-011 -6.11072e-027   
     length 0.622296   
     axis 3.9013e-015 -90 -90   XYZ
    dof rx rz
    limits (-90.0 90.0)
           (-45.0 45.0)
  end
  begin
     id 29
     name rfingers
     direction -1 -4.48865e-011 -1.22637e-026   
     length 0.501711   
     axis 7.80276e-015 -90 -90   XYZ
    dof rx
    limits (0.0 90.0)
  end
  begin
     id 30
     name rthumb
     direction -0.707107 -6.34932e-011 0.707107   
     length 0.72036   
     axis -90 -45 -5.37419e-014   XYZ
    dof rx rz
    limits (-45.0 45.0)
           (-45.0 45.0)
  end
:hierarchy
  begin
    root lhipjoint rhipjoint lowerback
    lhipjoint lfemur
    lfemur ltibia
    ltibia lfoot
    lfoot ltoes
    rhipjoint rfemur
    rfemur rtibia
    rtibia rfoot
    rfoot rtoes
    lowerback upperback
    upperback thorax
    thorax lowerneck lclavicle rclavicle
    lowerneck upperneck
    upperneck head
    lclavicle lhumerus
    lhumerus lradius
    lradius lwrist
    lwrist lhand lthumb
    lhand lfingers
    rclavicle rhumerus
    rhumerus rradius
    rradius rwrist
    rwrist rhand rthumb
    rhand rfingers
  end

#!OML:ASF H:\Not Pregnant\Project 1\Capture day 1\Session 1\non-pregnant.ASF
:FULLY-SPECIFIED
:DEGREES
70
root 4.30461 16.3526 14.8314 14.3707 -2.71159 -4.48285
lowerback -11.8998 2.56287 5.63592
upperback -9.12453 2.89676 -0.621184
thorax -2.63888 1.17293 -3.53193
lowerneck 17.0741 -9.32376 -29.9753
upperneck -12.7544 -16.5097 45.2304
head 1.26445 -10.7409 24.6318
rclavicle 2.71341e-014 -1.27222e-014
rhumerus -32.3953 14.1504 -98.6275
rradius 67.0945
rwrist -24.2143
rhand -8.39345 -20.1593
rfingers 7.12502
rthumb 17.5302 -49.3889
lclavicle 2.71341e-014 -1.27222e-014
lhumerus -40.8139 -13.9571 96.1974
lradius 78.6856
lwrist 57.429
lhand -27.99 -14.5349
lfingers 7.12502
lthumb -1.37623 15.4404
rfemur -18.4931 -14.3247 25.6863
rtibia 23.0576
rfoot -20.3158 19.3117
rtoes -13.9631
lfemur -19.352 7.29753 -15.1404
ltibia 26.1262
lfoot -18.2362 0.547999
ltoes -25.6015
71
root 4.30376 16.3533 14.8293 14.4133 -2.79457 -4.49253
lowerback -11.9144 2.58999 5.61591
upperback -9.1268 2.93337 -0.605231
thorax -2.6311 1.19286 -3.49964
lowerneck 17.0816 -9.3183 -29.9841
upperneck -12.9333 -16.4604 45.2652
head 1.203 -10.7213 24.6866
rclavicle 2.84759e-014 7.95139e-015
rhumerus -31.997 14.1489 -98.5005
rradius 67.2809
rwrist -24.5463
rhand -8.2566 -20.2932
rfingers 7.12502
rthumb 17.6619 -49.5111
lclavicle 2.84759e-014 7.95139e-015
lhumerus -40.4704 -14.143 96.1914
lradius 79.015
lwrist 57.5594
lhand -28.1282 -14.5881
lfingers 7.12502
lthumb -1.50976 15.3863
rfemur -18.5492 -14.1612 25.6856
rtibia 23.0656
rfoot -20.3065 19.2243
rtoes -14.0324
lfemur -19.3816 7.39323 -15.1535
ltibia 26.1073
lfoot -18.2419 0.544467
ltoes -25.5697
72
root 4.30227 16.3545 14.8273 14.48 -2.93541 -4.5137
lowerback -11.9492 2.63471 5.59333
upperback -9.12869 2.99198 -0.586053
thorax -2.61016 1.22438 -3.45939
lowerneck 17.0828 -9.31296 -29.9907
upperneck -13.1208 -16.4068 45.3011
head 1.13862 -10.6992 24.7428
rclavicle 1.85367e-014 -1.86858e-014
rhumerus -31.5532 14.1517 -98.365
rradius 67.4661
rwrist -24.9154
rhand -8.14173 -20.4489
rfingers 7.12502
rthumb 17.7725 -49.6567
lclavicle 1.85367e-014 -1.86858e-014
lhumerus -40.0876 -14.3403 96.1748
lradius 79.3458
lwrist 57.6918
lhand -28.2851 -14.654
lfingers 7.12502
lthumb -1.66129 15.3193
rfemur -18.6314 -13.979 25.6971
rtibia 23.0655
rfoot -20.2908 19.1845
rtoes -14.0717
lfemur -19.4241 7.52449 -15.1656
ltibia 26.0892
lfoot -18.2427 0.565777
ltoes -25.5524
73
root 4.30084 16.3556 14.8255 14.5436 -3.09222 -4.54012
lowerback -11.9821 2.68419 5.57838
upperback -9.12371 3.05609 -0.567145
thorax -2.58212 1.25861 -3.42294
lowerneck 17.0789 -9.30726 -29.9952
upperneck -13.3156 -16.3492 45.3419
head 1.0723 -10.6752 24.8041
rclavicle -2.44008e-014 -1.63003e-014
rhumerus -31.0644 14.1546 -98.2202
rradius 67.6551
rwrist -25.3049
rhand -8.02652 -20.6455
rfingers 7.12502
rthumb 17.8833 -49.8433
lclavicle -2.44008e-014 -1.63003e-014
lhumerus -39.6626 -14.5529 96.1496
lradius 79.6744
lwrist 57.822
lhand -28.4865 -14.7506
lfingers 7.12502
lthumb -1.85578 15.2211
rfemur -18.708 -13.8105 25.7118
rtibia 23.0607
rfoot -20.2746 19.1788
rtoes -14.0833
lfemur -19.4601 7.65941 -15.1744
ltibia 26.0744
lfoot -18.2423 0.599747
ltoes -25.5492
74
root 4.29998 16.3563 14.8235 14.5872 -3.21255 -4.55575
lowerback -11.9972 2.72179 5.57018
upperback -9.11 3.1049 -0.555025
thorax -2.55532 1.28482 -3.39945
lowerneck 17.0797 -9.30232 -29.9942
upperneck -13.5234 -16.2895 45.3886
head 1.00108 -10.6515 24.8716
rclavicle 2.11706e-014 -7.95139e-016
rhumerus -30.5359 14.143 -98.0647
rradius 67.852
rwrist -25.679
rhand -7.9098 -20.8376
rfingers 7.12502
rthumb 17.9956 -50.025
lclavicle 2.11706e-014 -7.95139e-016
lhumerus -39.1976 -14.787 96.1167
lradius 80.0094
lwrist 57.9495
lhand -28.7422 -14.8711
lfingers 7.12502
lthumb -2.1027 15.0983
rfemur -18.7656 -13.6912 25.7166
rtibia 23.0613
rfoot -20.2651 19.1818
rtoes -14.0875
lfemur -19.4834 7.76246 -15.1871
ltibia 26.0623
lfoot -18.2411 0.621988
ltoes -25.5482
75
root 4.29966 16.3567 14.8209 14.6065 -3.27795 -4.56076
lowerback -11.9843 2.74026 5.57059
upperback -9.08688 3.1294 -0.547884
thorax -2.5354 1.29831 -3.38949
lowerneck 17.0782 -9.29949 -29.9898
upperneck -13.7407 -16.2296 45.4417
head 0.928674 -10.6284 24.9446
rclavicle 1.93318e-014 -8.34896e-015
rhumerus -29.965 14.1193 -97.8981
rradius 68.0541
rwrist -26.0114
rhand -7.78433 -21.0134
rfingers 7.12502
rthumb 18.1163 -50.1897
lclavicle 1.93318e-014 -8.34896e-015
lhumerus -38.6828 -15.0376 96.0746
lradius 80.3473
lwrist 58.0679
lhand -29.0489 -15.0268
lfingers 7.12502
lthumb -2.39897 14.9394
rfemur -18.8002 -13.618 25.7135
rtibia 23.0694
rfoot -20.2632 19.1696
rtoes -14.0983
lfemur -19.4962 7.82628 -15.2
ltibia 26.0527
lfoot -18.2375 0.623382
ltoes -25.5521
76
root 4.30044 16.3563 14.8176 14.5812 -3.25536 -4.54018
lowerback -11.9273 2.72687 5.57748
upperback -9.0496 3.11396 -0.549684
thorax -2.52727 1.2912 -3.39823
lowerneck 17.077 -9.29764 -29.9809
upperneck -13.9681 -16.1678 45.5003
head 0.853162 -10.6052 25.023
rclavicle 2.5842e-015 -1.19271e-015
rhumerus -29.3596 14.0903 -97.7252
rradius 68.2724
rwrist -26.2978
rhand -7.68222 -21.1691
rfingers 7.12502
rthumb 18.2146 -50.3363
lclavicle 2.5842e-015 -1.19271e-015
lhumerus -38.1126 -15.3044 96.0215
lradius 80.6844
lwrist 58.1669
lhand -29.3815 -15.2164
lfingers 7.12502
lthumb -2.72018 14.746
rfemur -18.7892 -13.6171 25.6855
rtibia 23.0863
rfoot -20.272 19.1307
rtoes -14.1196
lfemur -19.4817 7.82353 -15.2221
ltibia 26.0434
lfoot -18.2324 0.594024
ltoes -25.559
77
root 4.3006 16.3564 14.8126 14.5612 -3.20932 -4.51608
lowerback -11.8492 2.70272 5.5769
upperback -9.01438 3.08649 -0.551862
thorax -2.53408 1.27795 -3.40536
lowerneck 17.0685 -9.30061 -29.9646
upperneck -14.2017 -16.1079 45.561
head 0.778031 -10.5829 25.0997
rclavicle 1.90336e-014 -7.15625e-015
rhumerus -28.7055 14.0631 -97.5479
rradius 68.4935
rwrist -26.5409
rhand -7.6332 -21.3072
rfingers 7.12502
rthumb 18.2617 -50.47
lclavicle 1.90336e-014 -7.15625e-015
lhumerus -37.4809 -15.5724 95.9505
lradius 81.0237
lwrist 58.2267
lhand -29.7077 -15.4066
lfingers 7.12502
lthumb -3.0352 14.5515
rfemur -18.7909 -13.6111 25.6626
rtibia 23.1073
rfoot -20.2752 19.0616
rtoes -14.1646
lfemur -19.4855 7.81071 -15.2424
ltibia 26.0341
lfoot -18.2188 0.54758
ltoes -25.5699
78
root 4.30018 16.3569 14.8063 14.549 -3.15435 -4.49258
lowerback -11.757 2.67296 5.57088
upperback -8.9804 3.05308 -0.552734
thorax -2.55077 1.26171 -3.40928
lowerneck 17.0545 -9.30763 -29.9402
upperneck -14.4401 -16.049 45.6208
head 0.702128 -10.5609 25.1722
rclavicle -2.61402e-014 -9.14409e-015
rhumerus -28.0084 14.0456 -97.3681
rradius 68.7211
rwrist -26.7419
rhand -7.65636 -21.4228
rfingers 7.12502
rthumb 18.2395 -50.5877
lclavicle -2.61402e-014 -9.14409e-015
lhumerus -36.7933 -15.8627 95.8792
lradius 81.2969
lwrist 58.2195
lhand -29.7906 -15.8477
lfingers 7.12502
lthumb -3.11525 14.1093
rfemur -18.8065 -13.5883 25.6462
rtibia 23.131
rfoot -20.2709 18.9676
rtoes -14.2233
lfemur -19.5052 7.79181 -15.2588
ltibia 26.0239
lfoot -18.1959 0.494257
ltoes -25.5727
79
root 4.29919 16.358 14.7988 14.5466 -3.09868 -4.4719
lowerback -11.6497 2.63984 5.56014
upperback -8.94913 3.01672 -0.551284
thorax -2.57909 1.24389 -3.40903
lowerneck 17.0319 -9.31775 -29.9089
upperneck -14.6772 -15.9906 45.6784
head 0.627288 -10.5384 25.2391
rclavicle 2.05742e-014 7.55382e-015
rhumerus -27.2639 14.051 -97.1874
rradius 68.9472
rwrist -26.9117
rhand -7.76503 -21.5157
rfingers 7.12502
rthumb 18.1349 -50.6903
lclavicle 2.05742e-014 7.55382e-015
lhumerus -36.0379 -16.1352 95.7832
lradius 81.5782
lwrist 58.1728
lhand -29.869 -16.2445
lfingers 7.12502
lthumb -3.19095 13.7114
rfemur -18.8366 -13.5419 25.6376
rtibia 23.1524
rfoot -20.257 18.849
rtoes -14.3012
lfemur -19.5413 7.76054 -15.2695
ltibia 26.0133
lfoot -18.1627 0.451309
ltoes -25.5821
80
root 4.29795 16.3591 14.7901 14.5393 -3.03582 -4.4482
lowerback -11.5128 2.6008 5.54491
upperback -8.91883 2.97487 -0.549506
thorax -2.62518 1.22301 -3.40758
lowerneck 16.9977 -9.3328 -29.87
upperneck -14.9062 -15.936 45.7294
head 0.556572 -10.5163 25.2936
rclavicle -3.35449e-014 1.27222e-014
rhumerus -26.4839 14.0618 -97.0066
rradius 69.1717
rwrist -27.0336
rhand -7.95231 -21.5402
rfingers 7.12502
rthumb 17.9547 -50.7314
lclavicle -3.35449e-014 1.27222e-014
lhumerus -35.2215 -16.3963 95.6679
lradius 81.8561
lwrist 58.0958
lhand -29.896 -16.6542
lfingers 7.12502
lthumb -3.21701 13.3013
rfemur -18.8656 -13.4929 25.6275
rtibia 23.1735
rfoot -20.2377 18.7169
rtoes -14.3895
lfemur -19.5783 7.71139 -15.2795
ltibia 26.0022
lfoot -18.1212 0.414285
ltoes -25.5844
81
root 4.29663 16.3602 14.7808 14.5247 -2.97353 -4.42516
lowerback -11.3442 2.55764 5.52746
upperback -8.89275 2.92995 -0.543762
thorax -2.69347 1.20008 -3.40225
lowerneck 16.9561 -9.34767 -29.8312
upperneck -15.1201 -15.8825 45.7722
head 0.490173 -10.493 25.3388
rclavicle -2.01766e-014 -1.39149e-014
rhumerus -25.6761 14.0882 -96.8259
rradius 69.3878
rwrist -27.1176
rhand -8.18266 -21.5288
rfingers 7.12502
rthumb 17.7331 -50.7402
lclavicle -2.01766e-014 -1.39149e-014
lhumerus -34.3505 -16.6321 95.5332
lradius 82.1436
lwrist 58.0127
lhand -29.9623 -17.0075
lfingers 7.12502
lthumb -3.28105 12.947
rfemur -18.8902 -13.4484 25.6174
rtibia 23.1954
rfoot -20.2162 18.5888
rtoes -14.4739
lfemur -19.6093 7.63842 -15.2854
ltibia 25.9916
lfoot -18.0723 0.400404
ltoes -25.5953
82
root 4.29556 16.3612 14.7713 14.5008 -2.90799 -4.39664
lowerback -11.1469 2.51005 5.50638
upperback -8.87174 2.88142 -0.536171
thorax -2.78345 1.17485 -3.39435
lowerneck 16.9117 -9.36181 -29.7934
upperneck -15.3175 -15.8309 45.804
head 0.4275 -10.4691 25.3727
rclavicle 1.51076e-014 -6.75868e-015
rhumerus -24.8446 14.1219 -96.6448
rradius 69.5874
rwrist -27.1731
rhand -8.41204 -21.4755
rfingers 7.12502
rthumb 17.5123 -50.7067
lclavicle 1.51076e-014 -6.75868e-015
lhumerus -33.4337 -16.8487 95.3803
lradius 82.4564
lwrist 57.9491
lhand -30.1299 -17.2675
lfingers 7.12502
lthumb -3.44292 12.6844
rfemur -18.9088 -13.4374 25.6014
rtibia 23.2194
rfoot -20.1983 18.4893
rtoes -14.5445
lfemur -19.6313 7.54306 -15.2958
ltibia 25.9817
lfoot -18.0202 0.405046
ltoes -25.6089
83
root 4.29461 16.3618 14.7619 14.4682 -2.84457 -4.36972
lowerback -10.9283 2.45993 5.48555
upperback -8.8536 2.83092 -0.522431
thorax -2.88858 1.1483 -3.38097
lowerneck 16.869 -9.37007 -29.7625
upperneck -15.5013 -15.7757 45.8273
head 0.365304 -10.4421 25.4031
rclavicle -3.15571e-014 1.55052e-014
rhumerus -23.9812 14.1661 -96.4613
rradius 69.7546
rwrist -27.2224
rhand -8.61478 -21.3673
rfingers 7.12502
rthumb 17.3172 -50.6158
lclavicle -3.15571e-014 1.55052e-014
lhumerus -32.4768 -17.0465 95.2148
lradius 82.781
lwrist 57.9151
lhand -30.3647 -17.4293
lfingers 7.12502
lthumb -3.66967 12.5189
rfemur -18.92 -13.4547 25.5864
rtibia 23.2445
rfoot -20.1857 18.4197
rtoes -14.5989
lfemur -19.6424 7.43117 -15.303
ltibia 25.974
lfoot -17.9662 0.429849
ltoes -25.6244
